<mxfile host="app.diagrams.net" agent="Mozilla/5.0 (X11; Ubuntu; Linux x86_64; rv:138.0) Gecko/20100101 Firefox/138.0" version="26.2.14">
  <diagram name="Page-1" id="dV-PcnuMziy5CtZ39TUs">
    <mxGraphModel dx="1426" dy="797" grid="1" gridSize="10" guides="1" tooltips="1" connect="1" arrows="1" fold="1" page="1" pageScale="1" pageWidth="850" pageHeight="1100" math="0" shadow="0">
      <root>
        <mxCell id="0" />
        <mxCell id="1" parent="0" />
        <mxCell id="x61fhZPYPt7W0P4XQGkz-6" style="edgeStyle=orthogonalEdgeStyle;rounded=0;orthogonalLoop=1;jettySize=auto;html=1;exitX=0.5;exitY=1;exitDx=0;exitDy=0;entryX=0.5;entryY=0;entryDx=0;entryDy=0;" edge="1" parent="1" source="x61fhZPYPt7W0P4XQGkz-1" target="x61fhZPYPt7W0P4XQGkz-2">
          <mxGeometry relative="1" as="geometry" />
        </mxCell>
        <mxCell id="x61fhZPYPt7W0P4XQGkz-1" value="&lt;div&gt;JSON&lt;/div&gt;" style="rounded=0;whiteSpace=wrap;html=1;" vertex="1" parent="1">
          <mxGeometry x="370" y="20" width="90" height="40" as="geometry" />
        </mxCell>
        <mxCell id="x61fhZPYPt7W0P4XQGkz-4" style="edgeStyle=orthogonalEdgeStyle;rounded=0;orthogonalLoop=1;jettySize=auto;html=1;exitX=0.5;exitY=1;exitDx=0;exitDy=0;entryX=0.5;entryY=0;entryDx=0;entryDy=0;" edge="1" parent="1" source="x61fhZPYPt7W0P4XQGkz-2" target="x61fhZPYPt7W0P4XQGkz-3">
          <mxGeometry relative="1" as="geometry" />
        </mxCell>
        <mxCell id="x61fhZPYPt7W0P4XQGkz-5" value="add each server socket to poll" style="edgeLabel;html=1;align=center;verticalAlign=middle;resizable=0;points=[];" vertex="1" connectable="0" parent="x61fhZPYPt7W0P4XQGkz-4">
          <mxGeometry x="-0.0286" y="-4" relative="1" as="geometry">
            <mxPoint x="-1" y="-14" as="offset" />
          </mxGeometry>
        </mxCell>
        <mxCell id="x61fhZPYPt7W0P4XQGkz-2" value="servers" style="whiteSpace=wrap;html=1;" vertex="1" parent="1">
          <mxGeometry x="370" y="100" width="90" height="40" as="geometry" />
        </mxCell>
        <mxCell id="x61fhZPYPt7W0P4XQGkz-7" style="edgeStyle=orthogonalEdgeStyle;rounded=0;orthogonalLoop=1;jettySize=auto;html=1;exitX=0.25;exitY=1;exitDx=0;exitDy=0;entryX=0.5;entryY=0;entryDx=0;entryDy=0;" edge="1" parent="1" source="x61fhZPYPt7W0P4XQGkz-3" target="x61fhZPYPt7W0P4XQGkz-9">
          <mxGeometry relative="1" as="geometry">
            <mxPoint x="370" y="320" as="targetPoint" />
          </mxGeometry>
        </mxCell>
        <mxCell id="x61fhZPYPt7W0P4XQGkz-11" style="edgeStyle=orthogonalEdgeStyle;rounded=0;orthogonalLoop=1;jettySize=auto;html=1;exitX=0.75;exitY=1;exitDx=0;exitDy=0;entryX=0.5;entryY=0;entryDx=0;entryDy=0;" edge="1" parent="1" source="x61fhZPYPt7W0P4XQGkz-3" target="x61fhZPYPt7W0P4XQGkz-10">
          <mxGeometry relative="1" as="geometry" />
        </mxCell>
        <mxCell id="x61fhZPYPt7W0P4XQGkz-3" value="epoll loop" style="whiteSpace=wrap;html=1;" vertex="1" parent="1">
          <mxGeometry x="355" y="210" width="120" height="60" as="geometry" />
        </mxCell>
        <mxCell id="x61fhZPYPt7W0P4XQGkz-13" style="edgeStyle=orthogonalEdgeStyle;rounded=0;orthogonalLoop=1;jettySize=auto;html=1;exitX=0;exitY=0.5;exitDx=0;exitDy=0;entryX=1;entryY=0.5;entryDx=0;entryDy=0;" edge="1" parent="1" source="x61fhZPYPt7W0P4XQGkz-9" target="x61fhZPYPt7W0P4XQGkz-12">
          <mxGeometry relative="1" as="geometry" />
        </mxCell>
        <mxCell id="x61fhZPYPt7W0P4XQGkz-9" value="event fd is server" style="ellipse;whiteSpace=wrap;html=1;" vertex="1" parent="1">
          <mxGeometry x="270" y="310" width="110" height="50" as="geometry" />
        </mxCell>
        <mxCell id="x61fhZPYPt7W0P4XQGkz-15" style="edgeStyle=orthogonalEdgeStyle;rounded=0;orthogonalLoop=1;jettySize=auto;html=1;exitX=0.5;exitY=1;exitDx=0;exitDy=0;entryX=0.5;entryY=0;entryDx=0;entryDy=0;" edge="1" parent="1" source="x61fhZPYPt7W0P4XQGkz-10" target="x61fhZPYPt7W0P4XQGkz-16">
          <mxGeometry relative="1" as="geometry">
            <mxPoint x="515" y="410" as="targetPoint" />
          </mxGeometry>
        </mxCell>
        <mxCell id="x61fhZPYPt7W0P4XQGkz-10" value="event fd is connection" style="ellipse;whiteSpace=wrap;html=1;" vertex="1" parent="1">
          <mxGeometry x="460" y="310" width="110" height="50" as="geometry" />
        </mxCell>
        <mxCell id="x61fhZPYPt7W0P4XQGkz-14" style="edgeStyle=orthogonalEdgeStyle;rounded=0;orthogonalLoop=1;jettySize=auto;html=1;exitX=0.5;exitY=0;exitDx=0;exitDy=0;entryX=0;entryY=0.5;entryDx=0;entryDy=0;" edge="1" parent="1" source="x61fhZPYPt7W0P4XQGkz-12" target="x61fhZPYPt7W0P4XQGkz-3">
          <mxGeometry relative="1" as="geometry">
            <mxPoint x="410" y="190" as="targetPoint" />
          </mxGeometry>
        </mxCell>
        <mxCell id="x61fhZPYPt7W0P4XQGkz-22" value="add fd to poll" style="edgeLabel;html=1;align=center;verticalAlign=middle;resizable=0;points=[];" vertex="1" connectable="0" parent="x61fhZPYPt7W0P4XQGkz-14">
          <mxGeometry x="0.4056" y="-2" relative="1" as="geometry">
            <mxPoint as="offset" />
          </mxGeometry>
        </mxCell>
        <mxCell id="x61fhZPYPt7W0P4XQGkz-12" value="connect()" style="whiteSpace=wrap;html=1;" vertex="1" parent="1">
          <mxGeometry x="150" y="320" width="80" height="30" as="geometry" />
        </mxCell>
        <mxCell id="x61fhZPYPt7W0P4XQGkz-18" style="edgeStyle=orthogonalEdgeStyle;rounded=0;orthogonalLoop=1;jettySize=auto;html=1;exitX=0.5;exitY=1;exitDx=0;exitDy=0;entryX=0.5;entryY=0;entryDx=0;entryDy=0;" edge="1" parent="1" source="x61fhZPYPt7W0P4XQGkz-16" target="x61fhZPYPt7W0P4XQGkz-17">
          <mxGeometry relative="1" as="geometry" />
        </mxCell>
        <mxCell id="x61fhZPYPt7W0P4XQGkz-16" value="receive and parse request" style="whiteSpace=wrap;html=1;" vertex="1" parent="1">
          <mxGeometry x="462.5" y="400" width="105" height="40" as="geometry" />
        </mxCell>
        <mxCell id="x61fhZPYPt7W0P4XQGkz-20" style="edgeStyle=orthogonalEdgeStyle;rounded=0;orthogonalLoop=1;jettySize=auto;html=1;exitX=1;exitY=0.5;exitDx=0;exitDy=0;entryX=1;entryY=0.5;entryDx=0;entryDy=0;" edge="1" parent="1" source="x61fhZPYPt7W0P4XQGkz-17" target="x61fhZPYPt7W0P4XQGkz-3">
          <mxGeometry relative="1" as="geometry">
            <mxPoint x="420" y="190" as="targetPoint" />
          </mxGeometry>
        </mxCell>
        <mxCell id="x61fhZPYPt7W0P4XQGkz-21" value="remove fd from poll" style="edgeLabel;html=1;align=center;verticalAlign=middle;resizable=0;points=[];" vertex="1" connectable="0" parent="x61fhZPYPt7W0P4XQGkz-20">
          <mxGeometry x="0.5215" y="-1" relative="1" as="geometry">
            <mxPoint x="-30" y="1" as="offset" />
          </mxGeometry>
        </mxCell>
        <mxCell id="x61fhZPYPt7W0P4XQGkz-17" value="create and send response" style="whiteSpace=wrap;html=1;" vertex="1" parent="1">
          <mxGeometry x="462.5" y="480" width="105" height="40" as="geometry" />
        </mxCell>
      </root>
    </mxGraphModel>
  </diagram>
</mxfile>
